<svg width="0" height="0">
<symbol  xmlns="http://www.w3.org/2000/svg" width="54" height="50" viewBox="0 0 54.002 49.997">
  <path id="shopping-cart" data-name="cart" d="M245.553,1051.248A4.749,4.749,0,1,1,250.3,1056,4.755,4.755,0,0,1,245.553,1051.248Zm2.651,0a2.1,2.1,0,1,0,2.1-2.1A2.1,2.1,0,0,0,248.2,1051.248Zm-19.31,0a4.749,4.749,0,1,1,4.749,4.753A4.756,4.756,0,0,1,228.894,1051.248Zm2.652,0a2.1,2.1,0,1,0,2.1-2.1A2.1,2.1,0,0,0,231.547,1051.248Zm-4.916-6.9a2.661,2.661,0,0,1-2.6-2.118l-6.416-31.159-5.819-2.527a1.326,1.326,0,0,1,1.056-2.434l5.819,2.527a2.657,2.657,0,0,1,1.542,1.9l.834,4.051h41.3a2.652,2.652,0,0,1,2.6,3.188l-3.709,18.012a2.663,2.663,0,0,1-2.6,2.118H225.851l.781,3.79H258.4a1.327,1.327,0,1,1,0,2.653Zm-1.327-9.1h33.337l3.709-18.011H221.6Zm8.2-4.234a1.327,1.327,0,1,1,0-2.653h16.932a1.327,1.327,0,0,1,0,2.653Zm-1.035-6.889a1.327,1.327,0,0,1,0-2.653h19a1.327,1.327,0,1,1,0,2.653Z" transform="translate(-211 -1006.004)"/>
</symbol>
<symbol  xmlns="http://www.w3.org/2000/svg" width="58" height="38" viewBox="0 0 58 38.001">
  <path id="credit-card" data-name="creditcard" d="M515.041,1048a6,6,0,0,1-6.041-5.938v-26.125a6,6,0,0,1,6.041-5.937h45.917a6,6,0,0,1,6.042,5.937v26.125a6,6,0,0,1-6.042,5.938Zm-3.624-5.938a3.6,3.6,0,0,0,3.624,3.563h45.917a3.6,3.6,0,0,0,3.625-3.563v-15.438H511.417Zm0-17.813h53.167V1019.5H511.417Zm53.167-7.124v-1.188a3.6,3.6,0,0,0-3.625-3.562H515.041a3.6,3.6,0,0,0-3.624,3.562v1.188Zm-10.876,23.75a3.6,3.6,0,0,1-3.624-3.563v-2.375a3.6,3.6,0,0,1,3.624-3.562h2.417a3.6,3.6,0,0,1,3.624,3.562v2.375a3.6,3.6,0,0,1-3.624,3.563Zm-1.208-5.937v2.375a1.2,1.2,0,0,0,1.208,1.187h2.417a1.2,1.2,0,0,0,1.208-1.187v-2.375a1.2,1.2,0,0,0-1.208-1.188h-2.417A1.2,1.2,0,0,0,552.5,1034.938Zm-35.042,5.937a1.188,1.188,0,1,1,0-2.375h14.5a1.188,1.188,0,1,1,0,2.375Zm0-4.75a1.188,1.188,0,1,1,0-2.375h14.5a1.188,1.188,0,1,1,0,2.375Z" transform="translate(-509 -1010)"/>
</symbol>
<symbol  xmlns="http://www.w3.org/2000/svg" width="58" height="36" viewBox="0 0 58 36">
  <path id="cargo" data-name="cargo" d="M841.622,1040.357c0-.021,0-.04,0-.059H821.157c0,.02,0,.039,0,.059a5.752,5.752,0,0,1-11.5,0c0-.021,0-.04,0-.059h-4.906a1.862,1.862,0,0,1-1.877-1.842v-1.96h-2.966a.891.891,0,1,1,0-1.782h8.718a.891.891,0,1,1,0,1.782h-3.936v1.96a.06.06,0,0,0,.06.059h5.22a5.787,5.787,0,0,1,10.871,0h18.842V1031.8a.908.908,0,0,1,1.816,0v6.713h.437a5.786,5.786,0,0,1,10.87,0h2.375v-3.921h-1.03a2.822,2.822,0,0,1-2.845-2.792v-1.9a.9.9,0,0,1,.908-.891h2.823a2.967,2.967,0,0,0-2.822-2.021H841.5V1028a.908.908,0,0,1-1.816,0v-16.159a.059.059,0,0,0-.06-.059H804.751a.059.059,0,0,0-.06.059V1028a.908.908,0,0,1-1.816,0v-16.159a1.861,1.861,0,0,1,1.877-1.841h34.873a1.861,1.861,0,0,1,1.876,1.841v1.961h6.842a3.783,3.783,0,0,1,3.814,3.742v.951a.9.9,0,0,1-.719.871l1.5,5.9A4.728,4.728,0,0,1,857,1029.9v9.506a.9.9,0,0,1-.908.891h-2.968c0,.02,0,.039,0,.059a5.753,5.753,0,0,1-11.5,0Zm1.817,0a3.936,3.936,0,1,0,3.935-3.862A3.9,3.9,0,0,0,843.439,1040.357Zm-31.967,0a3.936,3.936,0,1,0,3.936-3.862A3.9,3.9,0,0,0,811.471,1040.357Zm41.654-8.554a1.021,1.021,0,0,0,1.03,1.01h1.029v-2.02h-2.058Zm-11.624-6.594h9.553l-1.483-5.822H841.5Zm0-7.6h8.84v-.059a1.982,1.982,0,0,0-2-1.96H841.5Zm3.989,22.757a1.881,1.881,0,1,1,1.88,1.84A1.86,1.86,0,0,1,845.49,1040.36Zm-31.96,0a1.881,1.881,0,1,1,1.88,1.84A1.86,1.86,0,0,1,813.53,1040.36Zm9.626-3.866a.891.891,0,1,1,0-1.782h13.562a.891.891,0,1,1,0,1.782Zm-21.311-3.8a.891.891,0,1,1,0-1.782H813.47a.891.891,0,1,1,0,1.782Zm18.732-4.063-4.843-4.752a.879.879,0,0,1,0-1.26.92.92,0,0,1,1.284,0l4.2,4.122,8.076-7.925a.922.922,0,0,1,1.284,0,.88.88,0,0,1,0,1.261l-8.718,8.554a.918.918,0,0,1-1.284,0Z" transform="translate(-799 -1010)"/>
</symbol>
<symbol  xmlns="http://www.w3.org/2000/svg" width="54" height="40" viewBox="0 0 54 40">
  <path id="mail-box" data-name="mailbox"  d="M1115.875,1048h-13.5a3.358,3.358,0,0,1-3.375-3.333v-13.333a10.076,10.076,0,0,1,10.125-10H1126v-12.222a1.119,1.119,0,0,1,1.125-1.112h11.25a1.119,1.119,0,0,1,1.125,1.112v6.666a1.118,1.118,0,0,1-1.125,1.111H1128.25v4.445h14.625a10.075,10.075,0,0,1,10.125,10v13.333a3.358,3.358,0,0,1-3.375,3.333Zm33.75-2.222a1.119,1.119,0,0,0,1.125-1.111v-13.333a7.835,7.835,0,0,0-7.875-7.778H1128.25v7.778a1.125,1.125,0,0,1-2.25,0v-7.778h-10.518a9.94,9.94,0,0,1,3.768,7.778v13.333a3.28,3.28,0,0,1-.193,1.111Zm-48.375-14.444v13.333a1.119,1.119,0,0,0,1.125,1.111h13.5a1.119,1.119,0,0,0,1.125-1.111v-13.333a7.876,7.876,0,0,0-15.75,0Zm27-16.667h9v-4.444h-9Z" transform="translate(-1099 -1008)"/>
</symbol>
</svg>